<?xml version="1.0" standalone="no"?>
<!DOCTYPE svg PUBLIC "-//W3C//DTD SVG 20010904//EN"
 "http://www.w3.org/TR/2001/REC-SVG-20010904/DTD/svg10.dtd">
<svg version="1.0" xmlns="http://www.w3.org/2000/svg"
 width="360.000000pt" height="305.000000pt" viewBox="0 0 360.000000 305.000000"
 preserveAspectRatio="xMidYMid meet">

<g transform="translate(0.000000,305.000000) scale(0.100000,-0.100000)"
fill="#000000" stroke="none">
<path d="M1825 2235 c-84 -30 -190 -100 -247 -164 -77 -87 -147 -269 -162
-421 l-6 -65 15 54 c20 71 47 106 108 141 82 47 82 47 83 -83 1 -121 5 -136
59 -196 53 -58 54 -80 6 -135 -23 -26 -41 -51 -41 -57 0 -5 -8 -9 -17 -9 -10
0 -25 -5 -33 -10 -11 -8 -8 -9 13 -4 15 3 27 4 27 0 0 -3 -12 -17 -27 -32 -16
-15 -20 -22 -10 -14 21 16 23 14 31 -32 5 -30 3 -41 -14 -58 -11 -11 -19 -25
-17 -32 1 -7 -5 -12 -13 -13 -8 0 -31 -31 -50 -70 -32 -63 -35 -77 -35 -155 0
-47 3 -96 7 -110 9 -30 47 -57 57 -41 4 6 13 -24 20 -67 7 -42 22 -99 33 -125
27 -62 95 -122 164 -144 43 -13 53 -20 49 -34 -4 -12 2 -18 26 -23 38 -7 109
3 128 18 21 17 270 24 276 8 10 -26 165 -3 165 25 0 27 -38 34 -93 18 -66 -21
-375 -38 -451 -25 -66 11 -99 42 -147 136 -66 132 -47 300 49 426 51 68 173
159 239 178 65 19 176 24 219 10 60 -19 167 -94 207 -145 l35 -46 -20 -72
c-10 -40 -31 -101 -45 -136 -25 -62 -25 -65 -8 -100 21 -43 22 -42 74 105 l37
104 19 -57 c14 -42 19 -85 18 -151 -1 -105 -6 -116 -81 -159 -24 -14 -41 -28
-38 -30 8 -8 110 63 143 100 18 20 37 53 42 74 14 49 14 184 1 218 -9 24 -6
32 25 66 19 21 37 51 41 66 3 16 7 34 10 41 2 7 -1 36 -7 64 -9 41 -22 62 -60
100 -26 26 -55 48 -63 48 -15 0 -28 71 -22 125 10 89 -45 317 -107 443 -18 36
-53 89 -79 118 l-48 52 16 37 c38 93 -47 212 -180 252 -23 7 -88 13 -146 13
-86 0 -118 -5 -175 -25z m534 -378 c22 -29 49 -73 60 -97 38 -87 93 -286 97
-355 6 -81 -8 -202 -20 -170 -4 11 -18 44 -32 73 -16 35 -20 52 -11 53 6 0 5
3 -4 7 -9 4 -40 30 -70 57 l-54 50 12 45 c17 65 15 169 -3 223 -17 49 -41 79
-30 36 6 -21 5 -22 -4 -6 -7 11 -16 15 -24 10 -6 -4 -3 0 7 9 13 13 19 33 20
68 1 27 5 50 9 50 4 0 25 -24 47 -53z m-374 -42 c60 -19 135 -40 167 -46 l57
-11 -13 -27 c-32 -61 -35 -97 -15 -162 11 -34 18 -64 16 -66 -2 -2 -28 2 -58
8 -67 15 -170 6 -237 -19 -49 -19 -56 -19 -53 1 3 18 -30 111 -59 166 -18 32
-54 84 -82 115 -33 37 -45 57 -36 60 31 11 57 14 129 15 61 1 96 -6 184 -34z
m-299 -37 c19 -23 19 -23 -2 -5 -32 26 -44 21 -45 -20 -2 -32 -3 -33 -6 -10
-9 58 18 75 53 35z m641 -80 c-3 -8 -6 -5 -6 6 -1 11 2 17 5 13 3 -3 4 -12 1
-19z m-576 -5 c13 -16 12 -17 -3 -4 -10 7 -18 15 -18 17 0 8 8 3 21 -13z
m-114 -60 c-2 -16 -4 -5 -4 22 0 28 2 40 4 28 2 -13 2 -35 0 -50z m550 -10
c-3 -10 -5 -4 -5 12 0 17 2 24 5 18 2 -7 2 -21 0 -30z m-378 -38 c0 -5 -6 1
-14 15 -8 14 -14 30 -14 35 0 6 6 -1 14 -15 8 -14 14 -29 14 -35z m-157 -10
c3 -13 1 -22 -3 -19 -9 5 -13 44 -5 44 2 0 6 -11 8 -25z m675 -22 c-3 -10 -5
-4 -5 12 0 17 2 24 5 18 2 -7 2 -21 0 -30z m-10 -45 c-3 -8 -6 -5 -6 6 -1 11
2 17 5 13 3 -3 4 -12 1 -19z m-596 -25 c13 -16 12 -17 -3 -4 -10 7 -18 15 -18
17 0 8 8 3 21 -13z m327 10 c-10 -2 -26 -2 -35 0 -10 3 -2 5 17 5 19 0 27 -2
18 -5z m80 0 c-10 -2 -28 -2 -40 0 -13 2 -5 4 17 4 22 1 32 -1 23 -4z m-155
-10 c-7 -2 -19 -2 -25 0 -7 3 -2 5 12 5 14 0 19 -2 13 -5z m337 -8 c0 -8 -4
-15 -10 -15 -5 0 -7 7 -4 15 4 8 8 15 10 15 2 0 4 -7 4 -15z m-61 -8 c-2 -1
-15 -11 -29 -22 l-25 -20 19 23 c11 12 24 22 29 22 6 0 8 -1 6 -3z m-512 -49
c-3 -7 -5 -2 -5 12 0 14 2 19 5 13 2 -7 2 -19 0 -25z m582 8 c15 -16 21 -33
19 -51 -2 -24 -8 -28 -38 -32 -76 -8 -104 20 -75 77 20 38 61 41 94 6z m42 -2
c23 -25 23 -26 2 -13 -13 7 -25 19 -27 26 -8 19 -2 16 25 -13z m-521 2 c0 -2
-9 -6 -20 -9 -11 -3 -18 -1 -14 4 5 9 34 13 34 5z m47 -2 c-3 -3 -12 -4 -19
-1 -8 3 -5 6 6 6 11 1 17 -2 13 -5z m42 -38 c-3 -3 -11 5 -18 17 -13 21 -12
21 5 5 10 -10 16 -20 13 -22z m-35 8 c27 -26 20 -62 -16 -84 -40 -24 -61 -25
-82 -4 -22 21 -20 57 3 78 19 17 19 17 14 -3 -4 -16 -1 -21 15 -21 29 0 38 21
17 37 -18 12 -17 13 7 13 15 0 34 -7 42 -16z m183 0 c-3 -3 -12 -4 -19 -1 -8
3 -5 6 6 6 11 1 17 -2 13 -5z m33 -19 c0 -8 -3 -16 -7 -18 -5 -3 -8 5 -8 18 0
13 3 21 8 18 4 -2 7 -10 7 -18z m-337 0 c-3 -9 -8 -14 -10 -11 -3 3 -2 9 2 15
9 16 15 13 8 -4z m-63 -8 c0 -2 -10 -12 -22 -23 l-23 -19 19 23 c18 21 26 27
26 19z m227 -19 c-3 -8 -6 -5 -6 6 -1 11 2 17 5 13 3 -3 4 -12 1 -19z m267 6
c3 -8 2 -12 -4 -9 -6 3 -10 10 -10 16 0 14 7 11 14 -7z m251 -55 c9 -17 15
-33 13 -35 -3 -2 -12 12 -21 31 -21 43 -13 47 8 4z m-785 11 c0 -5 -5 -10 -11
-10 -5 0 -7 5 -4 10 3 6 8 10 11 10 2 0 4 -4 4 -10z m121 -27 c13 -16 12 -17
-3 -4 -10 7 -18 15 -18 17 0 8 8 3 21 -13z m95 2 c-11 -8 -25 -15 -30 -15 -6
1 0 7 14 15 32 19 40 18 16 0z m-243 -55 c-3 -11 -7 -20 -9 -20 -2 0 -4 9 -4
20 0 11 4 20 9 20 5 0 7 -9 4 -20z m910 -27 c-7 -2 -19 -2 -25 0 -7 3 -2 5 12
5 14 0 19 -2 13 -5z m58 -30 c13 -16 12 -17 -3 -4 -17 13 -22 21 -14 21 2 0
10 -8 17 -17z m-448 -10 c-7 -2 -21 -2 -30 0 -10 3 -4 5 12 5 17 0 24 -2 18
-5z m387 -29 c0 -2 -11 2 -25 8 -14 6 -25 15 -25 20 0 5 11 1 25 -8 14 -9 25
-18 25 -20z m-453 20 c-3 -3 -12 -4 -19 -1 -8 3 -5 6 6 6 11 1 17 -2 13 -5z
m-50 -10 c-3 -3 -12 -4 -19 -1 -8 3 -5 6 6 6 11 1 17 -2 13 -5z m451 -45 c-3
-20 -5 -19 -9 9 -3 20 -2 29 4 23 5 -5 7 -19 5 -32z m-518 27 c0 -2 -7 -7 -16
-10 -8 -3 -12 -2 -9 4 6 10 25 14 25 6z m577 -108 c-2 -18 -4 -4 -4 32 0 36 2
50 4 33 2 -18 2 -48 0 -65z m-77 -41 c-3 -2 -25 20 -50 47 l-44 51 49 -47 c27
-26 47 -49 45 -51z m7 46 c-3 -10 -5 -2 -5 17 0 19 2 27 5 18 2 -10 2 -26 0
-35z m190 -20 c-2 -16 -4 -5 -4 22 0 28 2 40 4 28 2 -13 2 -35 0 -50z m-847
24 c0 -2 -17 -19 -37 -38 l-38 -34 34 38 c33 34 41 42 41 34z m-307 -77 c-3
-12 -8 -19 -11 -16 -5 6 5 36 12 36 2 0 2 -9 -1 -20z m1147 12 c0 -5 -7 -17
-15 -28 -14 -18 -14 -17 -4 9 12 27 19 34 19 19z m-123 -39 c-3 -10 -5 -4 -5
12 0 17 2 24 5 18 2 -7 2 -21 0 -30z m-787 23 c0 -2 -8 -10 -17 -17 -16 -13
-17 -12 -4 4 13 16 21 21 21 13z m777 -68 c-3 -8 -6 -5 -6 6 -1 11 2 17 5 13
3 -3 4 -12 1 -19z m-1030 -10 c-3 -8 -6 -5 -6 6 -1 11 2 17 5 13 3 -3 4 -12 1
-19z m10 -70 c-3 -8 -6 -5 -6 6 -1 11 2 17 5 13 3 -3 4 -12 1 -19z m1100 -95
c-2 -21 -4 -4 -4 37 0 41 2 58 4 38 2 -21 2 -55 0 -75z m-940 55 c-3 -7 -5 -2
-5 12 0 14 2 19 5 13 2 -7 2 -19 0 -25z m-130 -10 c-3 -8 -6 -5 -6 6 -1 11 2
17 5 13 3 -3 4 -12 1 -19z m40 -10 c-3 -8 -6 -5 -6 6 -1 11 2 17 5 13 3 -3 4
-12 1 -19z m990 -55 c-3 -10 -5 -4 -5 12 0 17 2 24 5 18 2 -7 2 -21 0 -30z
m-910 -5 c-3 -8 -6 -5 -6 6 -1 11 2 17 5 13 3 -3 4 -12 1 -19z m-70 -20 c-3
-7 -5 -2 -5 12 0 14 2 19 5 13 2 -7 2 -19 0 -25z m1010 -30 c-3 -8 -6 -5 -6 6
-1 11 2 17 5 13 3 -3 4 -12 1 -19z m-1000 -10 c-3 -8 -6 -5 -6 6 -1 11 2 17 5
13 3 -3 4 -12 1 -19z m70 -20 c-3 -7 -5 -2 -5 12 0 14 2 19 5 13 2 -7 2 -19 0
-25z m912 1 c1 8 4 12 7 8 4 -3 -4 -19 -16 -34 -14 -17 -20 -20 -17 -10 4 10
7 31 8 45 l1 27 8 -25 c4 -14 8 -19 9 -11z m-972 -21 c-3 -8 -6 -5 -6 6 -1 11
2 17 5 13 3 -3 4 -12 1 -19z m102 -88 c11 -24 11 -24 -3 -6 -9 11 -16 24 -16
30 0 12 5 7 19 -24z m-39 -15 c19 -19 32 -35 29 -35 -3 0 -20 16 -39 35 -19
19 -32 35 -29 35 3 0 20 -16 39 -35z m71 -48 c-8 -8 -14 -7 -23 2 -11 10 -9
11 6 5 15 -6 17 -4 11 6 -6 9 -4 11 4 5 9 -5 10 -10 2 -18z m34 -17 c3 -6 -1
-7 -9 -4 -18 7 -21 14 -7 14 6 0 13 -4 16 -10z"/>
<path d="M2458 1413 c7 -3 16 -2 19 1 4 3 -2 6 -13 5 -11 0 -14 -3 -6 -6z"/>
<path d="M2242 1418 c7 -19 38 -22 38 -4 0 10 -9 16 -21 16 -12 0 -19 -5 -17
-12z"/>
<path d="M2064 1063 c-33 -24 -41 -33 -24 -28 54 15 87 16 128 2 48 -17 55 -7
15 21 -63 43 -66 44 -119 5z"/>
<path d="M2295 954 l-40 -35 35 7 c19 5 61 8 93 9 31 0 57 3 57 8 0 12 -63 47
-85 47 -11 0 -38 -16 -60 -36z m95 11 c0 -2 -16 -5 -36 -7 -30 -4 -33 -2 -20
8 14 10 56 9 56 -1z"/>
<path d="M1842 924 c-33 -32 -35 -35 -12 -29 50 14 100 17 130 7 46 -17 39 13
-10 38 -53 27 -64 26 -108 -16z m81 9 c-7 -2 -21 -2 -30 0 -10 3 -4 5 12 5 17
0 24 -2 18 -5z"/>
</g>
</svg>
